name C:\Users\Nicos\Desktop\Gil_twoSteps\Study2\ExperimentalData\IK_Splined\twoSteps_IK_BSplines_100_meshInts_study2_p02_s_01_lowIK_modROI.mot
datacolumns 38
datarows 11
range 0.32800000 0.33953198
endheader
                time	         pelvis_tilt	         pelvis_list	     pelvis_rotation	           pelvis_tx	           pelvis_ty	           pelvis_tz	       hip_flexion_r	     hip_adduction_r	      hip_rotation_r	        knee_angle_r	       ankle_angle_r	    subtalar_angle_r	         mtp_angle_r	       hip_flexion_l	     hip_adduction_l	      hip_rotation_l	        knee_angle_l	       ankle_angle_l	    subtalar_angle_l	         mtp_angle_l	    lumbar_extension	      lumbar_bending	     lumbar_rotation	          arm_flex_r	           arm_add_r	           arm_rot_r	        elbow_flex_r	           pro_sup_r	        wrist_flex_r	         wrist_dev_r	          arm_flex_l	           arm_add_l	           arm_rot_l	        elbow_flex_l	           pro_sup_l	        wrist_flex_l	         wrist_dev_l	
          0.32800000	        -23.90391559	         -6.38095667	          9.46841971	         -1.36070098	          0.83286826	          0.29608208	         79.49123810	         -5.90608972	         -3.03956817	        -86.14978733	          5.85047043	        -23.61672405	          0.17904992	         -5.33122865	         -4.90484663	          9.99987440	        -37.52883939	        -33.62326054	          6.81896374	          6.80372902	        -21.33222128	         17.03412723	         -0.33266177	        -65.85552009	          7.89128708	        -31.53718097	         65.10657502	         72.01374481	         -3.60711300	          8.11926157	         31.24101846	         -6.62585943	         22.79360037	        139.50697731	         49.04836404	         -6.15747134	          5.23736219	
          0.32867602	        -23.80948524	         -6.26816886	          9.40440841	         -1.35732873	          0.83332839	          0.29610009	         79.00549049	         -5.89463403	         -2.98360319	        -85.89283101	          5.75991542	        -23.53113687	          0.24756086	         -5.18301369	         -4.74725518	          9.73012260	        -38.02131324	        -33.63912046	          7.13673155	          6.97350105	        -21.51460760	         16.94784598	         -0.41675475	        -65.46097339	          7.62015693	        -31.40375330	         65.23729670	         72.00163183	         -3.58779987	          8.14564978	         30.51007867	         -6.76399659	         22.44638014	        139.15270143	         49.05113102	         -6.23388712	          5.27971652	
          0.33081198	        -23.51109243	         -5.92094555	          9.20596845	         -1.34667441	          0.83476700	          0.29616849	         77.45875216	         -5.86172458	         -2.82067640	        -85.06827000	          5.51473372	        -23.24636515	          0.48565134	         -4.70389411	         -4.26958286	          8.86677347	        -39.59285124	        -33.67402083	          7.98930719	          7.47941543	        -22.08652623	         16.67971520	         -0.68730319	        -64.20650760	          6.76186626	        -30.96195720	         65.65259426	         71.96776964	         -3.52710995	          8.22865027	         28.20707112	         -7.18596881	         21.32341753	        137.99068945	         49.04552603	         -6.47435730	          5.41571294	
          0.33236000	        -23.29480676	         -5.67715346	          9.06542461	         -1.33895327	          0.83579656	          0.29622795	         76.32746931	         -5.84069792	         -2.71454333	        -84.45977137	          5.37222470	        -23.02764299	          0.67679264	         -4.34735382	         -3.94079986	          8.23157328	        -40.74515674	        -33.68624077	          8.47703845	          7.81986200	        -22.49728433	         16.48924185	         -0.88754961	        -63.29058467	          6.13842341	        -30.62438875	         65.95553050	         71.94701863	         -3.48341035	          8.28848172	         26.54353408	         -7.47934082	         20.48730418	        137.11187258	         49.02913166	         -6.64780094	          5.51614428	
          0.33236000	        -23.29480676	         -5.67715346	          9.06542461	         -1.33895327	          0.83579656	          0.29622795	         76.32746931	         -5.84069792	         -2.71454333	        -84.45977137	          5.37222470	        -23.02764299	          0.67679264	         -4.34735382	         -3.94079986	          8.23157328	        -40.74515674	        -33.68624077	          8.47703845	          7.81986200	        -22.49728433	         16.48924185	         -0.88754961	        -63.29058467	          6.13842341	        -30.62438875	         65.95553050	         71.94701863	         -3.48341035	          8.28848172	         26.54353408	         -7.47934082	         20.48730418	        137.11187258	         49.02913166	         -6.64780094	          5.51614428	
          0.33303602	        -23.20035466	         -5.57068929	          9.00404901	         -1.33558145	          0.83624617	          0.29625391	         75.83343732	         -5.83151556	         -2.66819495	        -84.19403960	          5.30999091	        -22.93212686	          0.76026417	         -4.19165243	         -3.79722010	          7.95418092	        -41.24836934	        -33.69157722	          8.69003103	          7.96853525	        -22.67666268	         16.40606201	         -0.97499736	        -62.89060050	          5.86616550	        -30.47697238	         66.08782297	         71.93795665	         -3.46432670	          8.31461016	         25.81706631	         -7.60745659	         20.12217291	        136.72809266	         49.02197223	         -6.72354390	          5.56000271	
          0.33517198	        -22.90286795	         -5.24913981	          8.81724246	         -1.32493131	          0.83763682	          0.29636337	         74.25327907	         -5.80667046	         -2.54374461	        -83.33625298	          5.20115431	        -22.60473236	          1.05973502	         -3.68103323	         -3.37769225	          7.06381873	        -42.86327322	        -33.67554077	          9.11235695	          8.38023486	        -23.23359885	         16.14848342	         -1.25766494	        -61.61111947	          5.00777107	        -29.98009798	         66.50519279	         71.91693259	         -3.40513404	          8.39591007	         23.54260404	         -7.98886943	         18.93395976	        135.43644127	         48.97498212	         -6.95961266	          5.70149915	
          0.33672000	        -22.68808757	         -5.02901754	          8.68805220	         -1.31721568	          0.83861861	          0.29646659	         73.09132942	         -5.79229357	         -2.47270281	        -82.69874083	          5.19873949	        -22.34515709	          1.30789721	         -3.29470765	         -3.10336222	          6.40641395	        -44.05540248	        -33.63526737	          9.20014493	          8.62805761	        -23.62867768	         15.96636458	         -1.46807317	        -60.67015365	          4.38724741	        -29.59290622	         66.80713914	         71.90832156	         -3.36319586	          8.45373851	         21.91238338	         -8.24493374	         18.04272038	        134.43146559	         48.91970263	         -7.12787347	          5.80659252	
          0.33672000	        -22.68808757	         -5.02901754	          8.68805220	         -1.31721568	          0.83861861	          0.29646659	         73.09132942	         -5.79229357	         -2.47270281	        -82.69874083	          5.19873949	        -22.34515709	          1.30789721	         -3.29470765	         -3.10336222	          6.40641395	        -44.05540248	        -33.63526737	          9.20014493	          8.62805761	        -23.62867768	         15.96636458	         -1.46807317	        -60.67015365	          4.38724741	        -29.59290622	         66.80713914	         71.90832156	         -3.36319586	          8.45373851	         21.91238338	         -8.24493374	         18.04272038	        134.43146559	         48.91970263	         -7.12787347	          5.80659252	
          0.33739602	        -22.59429284	         -4.93289000	          8.63163473	         -1.31384626	          0.83904736	          0.29651166	         72.58390522	         -5.78601517	         -2.44167881	        -82.42033885	          5.19768494	        -22.23180040	          1.41626981	         -3.12599901	         -2.98356211	          6.11932483	        -44.57600614	        -33.61767996	          9.23848200	          8.73628197	        -23.80120887	         15.88683316	         -1.55995859	        -60.25923324	          4.11626431	        -29.42381932	         66.93899931	         71.90456111	         -3.34488142	          8.47899223	         21.20046490	         -8.35675720	         17.65351553	        133.99259202	         48.89556204	         -7.20135309	          5.85248686	
          0.33953198	        -22.30124498	         -4.64599725	          8.46069241	         -1.30320772	          0.84036048	          0.29669594	         70.96150577	         -5.76659098	         -2.36618335	        -81.52826663	          5.32544091	        -21.84583046	          1.78486733	         -2.57054333	         -2.64389350	          5.20313362	        -46.24636070	        -33.51733695	          9.08424048	          9.00119099	        -24.33061358	         15.63887220	         -1.85334094	        -58.93991666	          3.26949443	        -28.85875773	         67.35114761	         71.90100572	         -3.28874823	          8.55681152	         18.98903786	         -8.68436571	         16.39732583	        132.50556324	         48.79252342	         -7.42848281	          5.99978484	
